<svg width="1870" height="1080" viewBox="0 0 1870 1080" fill="none" xmlns="http://www.w3.org/2000/svg">
<g opacity="0.5">
<g filter="url(#filter0_f_493_20)">
<ellipse cx="1766.13" cy="-135.27" rx="801.408" ry="442.296" transform="rotate(-143.323 1766.13 -135.27)" fill="#73EAFF"/>
</g>
<g filter="url(#filter1_f_493_20)">
<path d="M1169.08 -321.889C1045.06 -296.372 988.012 -241.631 878.493 -178.097C667.083 -55.456 599.722 92.1055 381.65 202.465C-63.3133 427.648 730.556 -850.163 1221.02 -759.914C1529.34 -703.181 2120.05 -204.986 1806.61 -210.814C1681.43 -213.141 1622.63 -280.427 1499.36 -302.367C1372.15 -325.009 1295.64 -347.929 1169.08 -321.889Z" fill="url(#paint0_linear_493_20)"/>
</g>
<g filter="url(#filter2_f_493_20)">
<path d="M2286.28 628.456C2434.83 750.449 2574.58 784.43 2776.08 747.555C3184.27 672.852 2205.48 -390.275 2101.12 14.4474C2035.32 269.633 2096.54 472.632 2286.28 628.456Z" fill="#73EAFF"/>
</g>
<path d="M2343.69 555.443C2467.21 656.877 2583.4 685.132 2750.94 654.471C3090.35 592.358 2276.51 -291.607 2189.74 44.9094C2135.03 257.09 2185.93 425.879 2343.69 555.443Z" fill="#67E8FF"/>
</g>
<defs>
<filter id="filter0_f_493_20" x="771.034" y="-1031.1" width="1990.2" height="1791.66" filterUnits="userSpaceOnUse" color-interpolation-filters="sRGB">
<feFlood flood-opacity="0" result="BackgroundImageFix"/>
<feBlend mode="normal" in="SourceGraphic" in2="BackgroundImageFix" result="shape"/>
<feGaussianBlur stdDeviation="150" result="effect1_foregroundBlur_493_20"/>
</filter>
<filter id="filter1_f_493_20" x="0.89386" y="-1014.49" width="2144.77" height="1493.62" filterUnits="userSpaceOnUse" color-interpolation-filters="sRGB">
<feFlood flood-opacity="0" result="BackgroundImageFix"/>
<feBlend mode="normal" in="SourceGraphic" in2="BackgroundImageFix" result="shape"/>
<feGaussianBlur stdDeviation="125" result="effect1_foregroundBlur_493_20"/>
</filter>
<filter id="filter2_f_493_20" x="1775.58" y="-377.152" width="1399.53" height="1438.81" filterUnits="userSpaceOnUse" color-interpolation-filters="sRGB">
<feFlood flood-opacity="0" result="BackgroundImageFix"/>
<feBlend mode="normal" in="SourceGraphic" in2="BackgroundImageFix" result="shape"/>
<feGaussianBlur stdDeviation="150" result="effect1_foregroundBlur_493_20"/>
</filter>
<linearGradient id="paint0_linear_493_20" x1="727.691" y1="-61.767" x2="1450.35" y2="-442.893" gradientUnits="userSpaceOnUse">
<stop stop-color="#2F2F2F"/>
<stop offset="1" stop-color="#696969"/>
</linearGradient>
</defs>
</svg>
